<svg width="11" height="10" viewBox="0 0 11 10" fill="none" xmlns="http://www.w3.org/2000/svg">
<g clip-path="url(#clip0_574_580)">
<path fill-rule="evenodd" clip-rule="evenodd" d="M10.0035 3.30455C10.597 3.69318 11 4.29545 11 5C11 5.70455 10.597 6.30727 10.0035 6.69545C10.1235 7.35091 9.9365 8.04 9.39 8.53636C8.8425 9.03409 8.085 9.19954 7.367 9.09318C6.9415 9.63455 6.273 10 5.5 10C4.725 10 4.061 9.63318 3.6345 9.09273C2.9155 9.19955 2.1575 9.03455 1.6095 8.53636C1.062 8.03864 0.88 7.34955 1.001 6.69545C0.408 6.30773 0 5.705 0 5C0 4.295 0.408 3.69182 1.001 3.30455C0.88 2.65045 1.062 1.96136 1.61 1.46364C2.1565 0.966364 2.915 0.796818 3.6385 0.905909C4.0625 0.365455 4.7265 0 5.5 0C6.2725 0 6.94 0.365 7.366 0.905909C8.087 0.796818 8.844 0.967273 9.39 1.46364C9.9365 1.96 10.124 2.64909 10.0035 3.30455ZM7.7905 3.26636C7.84395 3.30104 7.88937 3.34495 7.92415 3.39559C7.95893 3.44622 7.9824 3.50259 7.99322 3.56147C8.00404 3.62035 8.002 3.6806 7.9872 3.73876C7.97241 3.79692 7.94515 3.85187 7.907 3.90045L5.407 7.08227C5.3648 7.13601 5.31023 7.18074 5.24708 7.21336C5.18393 7.24597 5.11373 7.26569 5.04135 7.27114C4.96897 7.2766 4.89616 7.26765 4.82797 7.24492C4.75978 7.22219 4.69785 7.18623 4.6465 7.13955L3.1465 5.77591C3.05542 5.69018 3.00502 5.57536 3.00616 5.45618C3.0073 5.337 3.05989 5.223 3.15259 5.13872C3.24529 5.05444 3.3707 5.00664 3.5018 5.0056C3.6329 5.00457 3.7592 5.05038 3.8535 5.13318L4.936 6.11727L7.093 3.37182C7.17011 3.27375 7.28692 3.20755 7.41773 3.18777C7.54853 3.168 7.68262 3.19627 7.7905 3.26636Z" fill="#1DA0FF"/>
</g>
<defs>
<clipPath id="clip0_574_580">
<rect width="11" height="10" fill="white"/>
</clipPath>
</defs>
</svg>
